<svg width="174" height="28" viewBox="0 0 174 28" fill="none" xmlns="http://www.w3.org/2000/svg">
<path d="M0 22.3189V3.26891H3.07V19.5589H14.81V22.3189H0Z" fill="#6DBF67"/>
<path d="M16.2402 15.2689C16.2402 10.8589 19.2502 7.90891 23.8602 7.90891C28.4702 7.90891 31.2202 10.3289 31.2202 14.6189C31.2202 15.1289 31.1902 15.5289 31.1102 15.9589H19.1102C19.2202 18.6889 20.5602 20.1389 23.8302 20.1389C26.7902 20.1389 28.0102 19.1689 28.0102 17.4989V17.2689H31.0802V17.5189C31.0802 20.5289 28.1202 22.6089 23.9202 22.6089C19.2902 22.6089 16.2402 19.9889 16.2402 15.2689ZM19.1402 14.2389H28.3202V14.1789C28.3202 11.5589 26.8102 10.3089 23.8002 10.3089C20.7902 10.3089 19.3102 11.6989 19.1402 14.2289V14.2389Z" fill="#6DBF67"/>
<path d="M32.9102 18.9089C32.9102 16.7189 34.6702 15.5789 37.4602 15.2689L43.8902 14.5889V13.7689C43.8902 11.4389 42.8702 10.6089 40.1702 10.6089C37.4702 10.6089 36.2802 11.4589 36.2802 13.5389V13.6489H33.2402V13.5389C33.2402 10.3289 35.9102 7.90891 40.4002 7.90891C44.8902 7.90891 46.9102 10.3489 46.9102 13.7389V22.3289H44.1002V18.7989H43.9002C43.1602 21.1889 40.9102 22.6089 37.7002 22.6089C34.7702 22.6089 32.9202 21.2389 32.9202 18.9089H32.9102ZM38.5102 20.3889C41.7202 20.3889 43.8802 19.1989 43.8802 16.4089L38.3402 17.0389C36.7502 17.2389 35.9802 17.6089 35.9802 18.7189C35.9802 19.8289 36.7502 20.3989 38.5102 20.3989V20.3889Z" fill="#6DBF67"/>
<path d="M49.0703 14.4689C49.0703 10.5489 51.6903 7.89891 55.9803 7.89891C58.9403 7.89891 61.1503 9.23891 61.6703 11.7089H61.8403V8.17891H64.6503V20.6589C64.6503 25.4089 61.6903 27.4289 57.0603 27.4289C52.8803 27.4289 49.9803 25.4689 49.9803 22.0489H53.0203C53.0203 24.0989 54.2103 24.8589 57.2303 24.8589C60.4403 24.8589 61.6103 23.9789 61.6103 20.8189V17.3489H61.4103C60.9003 19.4789 58.9903 21.0189 55.7803 21.0189C51.5703 21.0189 49.0703 18.3789 49.0703 14.4489V14.4689ZM56.7703 18.3889C59.9003 18.3889 61.6003 17.0789 61.6003 14.5789V14.1789C61.6003 11.7889 59.8403 10.5689 56.8503 10.5689C53.8603 10.5689 52.1603 11.5589 52.1603 14.4589C52.1603 17.3589 53.8703 18.3789 56.7703 18.3789V18.3889Z" fill="#6DBF67"/>
<path d="M67.4707 16.6889V8.1889H70.5107V15.8689C70.5107 18.5089 71.7307 19.8489 74.7207 19.8489C77.7107 19.8489 79.3007 18.2589 79.3007 15.1889V8.19891H82.3407V22.3289H79.5307V17.9489H79.3607C78.9107 20.3389 77.0307 22.6089 73.3907 22.6089C69.4107 22.6089 67.4807 19.9589 67.4807 16.6989L67.4707 16.6889Z" fill="#6DBF67"/>
<path d="M84.5703 15.2689C84.5703 10.8589 87.5803 7.90891 92.1903 7.90891C96.8003 7.90891 99.5503 10.3289 99.5503 14.6189C99.5503 15.1289 99.5203 15.5289 99.4403 15.9589H87.4403C87.5503 18.6889 88.8903 20.1389 92.1603 20.1389C95.1203 20.1389 96.3403 19.1689 96.3403 17.4989V17.2689H99.4103V17.5189C99.4103 20.5289 96.4503 22.6089 92.2503 22.6089C87.6203 22.6089 84.5703 19.9889 84.5703 15.2689ZM87.4703 14.2389H96.6503V14.1789C96.6503 11.5589 95.1403 10.3089 92.1303 10.3089C89.1203 10.3089 87.6403 11.6989 87.4703 14.2289V14.2389Z" fill="#6DBF67"/>
<path d="M101.859 22.3189V3.26891H117.009V6.02891H104.929V11.9389H116.589V14.6689H104.929V22.3189H101.859Z" fill="#6DBF67"/>
<path d="M125.221 22.3189V8.1889H128.031V12.5689H128.231C128.661 10.1789 130.531 7.90891 134.111 7.90891C138.031 7.90891 139.971 10.5489 139.971 13.8189V22.3189H136.901V14.6389C136.901 11.9989 135.711 10.6589 132.781 10.6589C129.681 10.6589 128.291 12.2489 128.291 15.3189V22.3089H125.221V22.3189Z" fill="#6DBF67"/>
<path d="M142 15.2689C142 10.8589 144.44 7.90891 148.74 7.90891C152.1 7.90891 154 9.63891 154.57 12.0289H154.74V3.26891H157.81V22.3189H155V18.2489H154.8C154.2 21.0589 152.13 22.5989 148.94 22.5989C144.48 22.5989 142 19.6089 142 15.2589V15.2689ZM149.87 19.7889C152.88 19.7889 154.73 18.3689 154.73 15.4089V15.1789C154.73 12.1689 152.97 10.6889 149.81 10.6889C146.85 10.6889 145.09 11.8489 145.09 15.2689C145.09 18.6889 146.83 19.7889 149.87 19.7889Z" fill="#6DBF67"/>
<path d="M160.66 22.3189V8.1889H163.47V11.9989H163.67C164.1 9.71891 165.63 7.89891 168.53 7.89891C171.74 7.89891 173.14 10.1989 173.14 12.8689V14.7189H170.1V13.4689C170.1 11.4489 169.25 10.5089 167.14 10.5089C164.72 10.5089 163.73 11.8489 163.73 14.3789V22.3089H160.66V22.3189Z" fill="#6DBF67"/>
<path d="M119.299 22.3189V8.1889H122.369V22.3189H119.299Z" fill="#6DBF67"/>
<path d="M120.59 0.00890988C122.38 -0.13109 123.82 1.39891 123.54 3.17891C123.34 4.44891 122.03 6.19891 121.13 7.10891C121.02 7.22891 120.92 7.3589 120.74 7.2989C120.61 7.2589 120.15 6.70891 120.04 6.57891C119.09 5.46891 117.82 3.7289 118.13 2.1889C118.36 1.0289 119.4 0.108904 120.58 0.0189044L120.59 0.00890988ZM120.76 1.3789C119.76 1.4389 119.15 2.5189 119.64 3.4089C120.16 4.3489 121.55 4.33891 122.05 3.38891C122.55 2.43891 121.83 1.3189 120.76 1.3789Z" fill="#6DBF67"/>
</svg>
